<svg width="293" height="136" viewBox="0 0 293 136" fill="none" xmlns="http://www.w3.org/2000/svg">
<g filter="url(#filter0_d_85_3043)">
<g filter="url(#filter1_d_85_3043)">
<rect x="4" y="0.0251465" width="284.045" height="127.513" rx="17.5879" fill="white"/>
</g>
<path d="M137.62 74.1157V49.4926H140.575L154.012 70.2112H154.082V49.4926H156.65V74.1157H153.66L140.293 53.4675H140.223V74.1157H137.62ZM178.924 74.1157L176.532 67.7489H164.677L162.285 74.1157H159.542L169.039 49.4926H172.17L181.632 74.1157H178.924ZM165.451 65.7439H175.758L170.692 52.3067H170.516L165.451 65.7439ZM187.796 74.1157V51.779H179.916V49.4926H198.208V51.779H190.363V74.1157H187.796ZM210.665 74.4675C204.861 74.4675 201.273 70.9851 201.273 64.8293V49.4926H203.876V64.6886C203.876 69.5077 206.374 72.181 210.665 72.181C214.921 72.181 217.454 69.5077 217.454 64.6886V49.4926H220.057V64.8293C220.057 70.9851 216.399 74.4675 210.665 74.4675ZM241.774 74.1157H239.136L233.438 64.4775H233.016H226.754V74.1157H224.151V49.4926H233.016C238.679 49.4926 241.598 52.3419 241.598 57.0202C241.598 60.7841 239.664 63.3519 235.9 64.1961L241.774 74.1157ZM226.754 51.779V62.1559H232.91C236.92 62.1559 238.96 60.3268 238.96 57.0202C238.96 53.6082 236.92 51.779 232.91 51.779H226.754ZM244.968 74.1157V49.4926H260.481V51.779H247.571V60.3971H259.425V62.5077H247.571V71.8293H260.832V74.1157H244.968Z" fill="#646161"/>
<path d="M48.4476 92.1067C60.8534 92.1067 70.9103 81.682 70.9103 68.8225C70.9103 55.963 60.8534 45.5383 48.4476 45.5383C36.0418 45.5383 25.9849 55.963 25.9849 68.8225C25.9849 81.682 36.0418 92.1067 48.4476 92.1067Z" fill="#83BF4F"/>
<path d="M48.4476 64.9929C60.2252 64.9929 69.7729 55.1168 69.7729 42.9342C69.7729 30.7515 60.2252 20.8755 48.4476 20.8755C36.6699 20.8755 27.1222 30.7515 27.1222 42.9342C27.1222 55.1168 36.6699 64.9929 48.4476 64.9929Z" fill="#83BF4F"/>
<path d="M71.7634 58.8654C83.9337 58.8654 93.7996 48.6465 93.7996 36.0408C93.7996 23.4351 83.9337 13.2162 71.7634 13.2162C59.5931 13.2162 49.7272 23.4351 49.7272 36.0408C49.7272 48.6465 59.5931 58.8654 71.7634 58.8654Z" fill="#83BF4F"/>
<path d="M92.8044 72.9585C103.012 72.9585 111.286 64.3856 111.286 53.8104C111.286 43.2352 103.012 34.6622 92.8044 34.6622C82.5971 34.6622 74.3224 43.2352 74.3224 53.8104C74.3224 64.3856 82.5971 72.9585 92.8044 72.9585Z" fill="#83BF4F"/>
<path d="M79.2983 90.881C89.5056 90.881 97.7803 82.3081 97.7803 71.7329C97.7803 61.1576 89.5056 52.5847 79.2983 52.5847C69.091 52.5847 60.8163 61.1576 60.8163 71.7329C60.8163 82.3081 69.091 90.881 79.2983 90.881Z" fill="#83BF4F"/>
<path d="M64.2285 108.191C64.655 102.064 63.8019 95.6298 62.9489 88.8896C62.0959 82.1495 60.9586 75.2561 60.9586 68.2096C60.8164 61.1631 61.6694 53.9634 63.9441 47.3764C66.0767 40.7894 69.3465 34.8152 73.1851 29.4537C69.9152 35.2748 67.4983 41.5554 66.2188 48.1423C64.9393 54.5761 64.9393 61.3163 65.7923 67.7501C66.6453 74.1838 68.3514 80.6176 70.1996 87.2046C71.9056 93.7916 73.7538 100.685 74.1803 108.191H64.2285Z" fill="#947151"/>
<path d="M63.5176 65.6056C66.361 65.912 69.4887 65.7588 72.4743 65.4524C75.4598 65.1461 78.4454 64.3801 81.2887 63.3078C84.1321 62.2355 86.8333 60.7037 89.2502 58.7123C91.6671 56.7209 93.7996 54.2699 95.3635 51.3594C93.9418 54.2699 92.0936 57.0272 89.6767 59.325C87.402 61.6228 84.7008 63.3078 81.7152 64.6865C78.8719 66.0652 75.7441 66.9843 72.7586 67.7502C69.6309 68.363 66.5031 68.8225 63.2333 68.6693L63.5176 65.6056ZM62.6646 63.461C60.532 62.0824 58.6838 60.5505 56.9778 59.0187C55.2718 57.3336 53.5657 55.4954 52.1441 53.6572C49.3007 49.6744 47.1681 44.9256 46.8838 40.0237C47.5946 44.9256 50.1537 49.2148 53.2814 52.5849C54.8453 54.2699 56.5513 55.8018 58.3995 57.1804C60.2477 58.5591 62.2381 59.7846 64.0863 60.7037L62.6646 63.461ZM64.9393 80.9242C62.5224 80.771 60.2477 80.3114 57.973 79.6987C55.6983 79.0859 53.5657 78.1668 51.4332 76.9413C47.3103 74.4904 43.7561 70.9671 41.6235 66.5247C44.1826 70.6607 47.879 73.7244 52.0019 75.4095C53.9923 76.3286 56.267 76.9413 58.3995 77.4009C60.532 77.8605 62.8067 78.0136 64.9393 77.8605V80.9242Z" fill="#947151"/>
<path d="M37.0741 74.3371C37.0741 77.7072 34.5151 80.4645 34.5151 80.4645C34.5151 80.4645 31.9561 77.7072 31.9561 74.3371C31.9561 70.967 34.5151 68.2097 34.5151 68.2097C34.5151 68.2097 37.0741 70.967 37.0741 74.3371ZM102.898 61.1632C102.898 64.5333 100.339 67.2906 100.339 67.2906C100.339 67.2906 97.7804 64.5333 97.7804 61.1632C97.7804 57.7931 100.339 55.0358 100.339 55.0358C100.339 55.0358 102.898 57.7931 102.898 61.1632ZM44.1826 82.1496C44.1826 85.5196 41.6236 88.277 41.6236 88.277C41.6236 88.277 39.0645 85.5196 39.0645 82.1496C39.0645 78.7795 41.6236 76.0222 41.6236 76.0222C41.6236 76.0222 44.1826 78.7795 44.1826 82.1496ZM37.0741 42.1682C37.0741 45.5383 34.5151 48.2956 34.5151 48.2956C34.5151 48.2956 31.9561 45.5383 31.9561 42.1682C31.9561 38.7981 34.5151 36.0408 34.5151 36.0408C34.5151 36.0408 37.0741 38.7981 37.0741 42.1682ZM44.1826 33.2835C44.1826 36.6535 41.6236 39.4109 41.6236 39.4109C41.6236 39.4109 39.0645 36.6535 39.0645 33.2835C39.0645 29.9134 41.6236 27.156 41.6236 27.156C41.6236 27.156 44.1826 29.9134 44.1826 33.2835ZM80.7201 37.7258C80.7201 41.0959 78.161 43.8532 78.161 43.8532C78.161 43.8532 75.7442 41.0959 75.7442 37.7258C75.7442 34.3558 78.3032 31.5984 78.3032 31.5984C78.3032 31.5984 80.7201 34.3558 80.7201 37.7258ZM87.8285 29.4538C87.8285 32.8239 85.2695 35.5812 85.2695 35.5812C85.2695 35.5812 82.7104 32.8239 82.7104 29.4538C82.7104 26.0838 85.2695 23.3264 85.2695 23.3264C85.2695 23.3264 87.8285 26.0838 87.8285 29.4538ZM54.7031 64.9928C54.7031 68.3629 52.1441 71.1202 52.1441 71.1202C52.1441 71.1202 49.585 68.3629 49.585 64.9928C49.585 61.6227 52.1441 58.8654 52.1441 58.8654C52.1441 58.8654 54.7031 61.6227 54.7031 64.9928ZM46.7416 57.1804C46.7416 60.5504 44.1826 63.3078 44.1826 63.3078C44.1826 63.3078 41.6236 60.5504 41.6236 57.1804C41.6236 53.8103 44.1826 51.053 44.1826 51.053C44.1826 51.053 46.7416 53.8103 46.7416 57.1804ZM60.2477 42.1682C60.2477 45.5383 57.6887 48.2956 57.6887 48.2956C57.6887 48.2956 55.1296 45.5383 55.1296 42.1682C55.1296 38.7981 57.6887 36.0408 57.6887 36.0408C57.6887 36.0408 60.2477 38.7981 60.2477 42.1682ZM65.7923 31.5984C65.7923 34.9685 63.2333 37.7258 63.2333 37.7258C63.2333 37.7258 60.6742 34.9685 60.6742 31.5984C60.6742 28.2283 63.2333 25.471 63.2333 25.471C63.2333 25.471 65.7923 28.2283 65.7923 31.5984ZM73.4695 57.1804C73.4695 60.5504 70.9104 63.3078 70.9104 63.3078C70.9104 63.3078 68.3514 60.5504 68.3514 57.1804C68.3514 53.8103 70.9104 51.053 70.9104 51.053C70.9104 51.053 73.4695 53.8103 73.4695 57.1804ZM92.8045 71.1202C92.8045 74.4903 90.2454 77.2476 90.2454 77.2476C90.2454 77.2476 87.6864 74.4903 87.6864 71.1202C87.6864 67.7501 90.2454 64.9928 90.2454 64.9928C90.2454 64.9928 92.8045 67.7501 92.8045 71.1202ZM87.8285 45.5383C87.8285 48.9084 85.2695 51.6657 85.2695 51.6657C85.2695 51.6657 82.7104 48.9084 82.7104 45.5383C82.7104 42.1682 85.2695 39.4109 85.2695 39.4109C85.2695 39.4109 87.8285 42.1682 87.8285 45.5383ZM79.2984 76.0222C79.2984 79.3922 76.7393 82.1496 76.7393 82.1496C76.7393 82.1496 74.1803 79.3922 74.1803 76.0222C74.1803 72.6521 76.7393 69.8947 76.7393 69.8947C76.7393 69.8947 79.2984 72.6521 79.2984 76.0222ZM85.9803 82.9155C85.9803 86.2856 83.4213 89.0429 83.4213 89.0429C83.4213 89.0429 80.8622 86.2856 80.8622 82.9155C80.8622 79.5454 83.4213 76.7881 83.4213 76.7881C83.4213 76.7881 85.9803 79.5454 85.9803 82.9155Z" fill="#75A843"/>
</g>
<defs>
<filter id="filter0_d_85_3043" x="0" y="0.0251465" width="292.045" height="135.513" filterUnits="userSpaceOnUse" color-interpolation-filters="sRGB">
<feFlood flood-opacity="0" result="BackgroundImageFix"/>
<feColorMatrix in="SourceAlpha" type="matrix" values="0 0 0 0 0 0 0 0 0 0 0 0 0 0 0 0 0 0 127 0" result="hardAlpha"/>
<feOffset dy="4"/>
<feGaussianBlur stdDeviation="2"/>
<feComposite in2="hardAlpha" operator="out"/>
<feColorMatrix type="matrix" values="0 0 0 0 0 0 0 0 0 0 0 0 0 0 0 0 0 0 0.25 0"/>
<feBlend mode="normal" in2="BackgroundImageFix" result="effect1_dropShadow_85_3043"/>
<feBlend mode="normal" in="SourceGraphic" in2="effect1_dropShadow_85_3043" result="shape"/>
</filter>
<filter id="filter1_d_85_3043" x="0.482412" y="0.0251465" width="291.08" height="134.548" filterUnits="userSpaceOnUse" color-interpolation-filters="sRGB">
<feFlood flood-opacity="0" result="BackgroundImageFix"/>
<feColorMatrix in="SourceAlpha" type="matrix" values="0 0 0 0 0 0 0 0 0 0 0 0 0 0 0 0 0 0 127 0" result="hardAlpha"/>
<feOffset dy="3.51759"/>
<feGaussianBlur stdDeviation="1.75879"/>
<feComposite in2="hardAlpha" operator="out"/>
<feColorMatrix type="matrix" values="0 0 0 0 0 0 0 0 0 0 0 0 0 0 0 0 0 0 0.25 0"/>
<feBlend mode="normal" in2="BackgroundImageFix" result="effect1_dropShadow_85_3043"/>
<feBlend mode="normal" in="SourceGraphic" in2="effect1_dropShadow_85_3043" result="shape"/>
</filter>
</defs>
</svg>
